# This file uses centimeters as units for non-parametric coordinates.

mtllib FT.mtl
g default
v -0.081443 -0.000000 0.407216
v 0.081443 -0.000000 0.407216
v -0.407216 -0.000000 0.203608
v -0.244330 -0.000000 0.203608
v -0.081443 -0.000000 0.203608
v 0.081443 -0.000000 0.203608
v 0.244330 -0.000000 0.203608
v 0.407216 -0.000000 0.203608
v -0.407216 0.000000 0.000000
v -0.244330 0.000000 0.000000
v -0.081443 0.000000 0.000000
v 0.081443 0.000000 0.000000
v 0.244330 0.000000 0.000000
v 0.407216 0.000000 0.000000
v -0.244330 0.000000 -0.203608
v -0.081443 0.000000 -0.203608
v 0.081443 0.000000 -0.203608
v 0.244330 0.000000 -0.203608
v -0.081443 0.000000 -0.407216
v 0.081443 0.000000 -0.407216
vt 0.400000 0.000000
vt 0.600000 0.000000
vt 0.000000 0.250000
vt 0.200000 0.250000
vt 0.400000 0.250000
vt 0.600000 0.250000
vt 0.800000 0.250000
vt 1.000000 0.250000
vt 0.000000 0.500000
vt 0.200000 0.500000
vt 0.400000 0.500000
vt 0.600000 0.500000
vt 0.800000 0.500000
vt 1.000000 0.500000
vt 0.200000 0.750000
vt 0.400000 0.750000
vt 0.600000 0.750000
vt 0.800000 0.750000
vt 0.400000 1.000000
vt 0.600000 1.000000
vn 0.000000 1.000000 0.000000
vn 0.000000 1.000000 0.000000
vn 0.000000 1.000000 0.000000
vn 0.000000 1.000000 0.000000
vn 0.000000 1.000000 0.000000
vn 0.000000 1.000000 0.000000
vn 0.000000 1.000000 0.000000
vn 0.000000 1.000000 0.000000
vn 0.000000 1.000000 0.000000
vn 0.000000 1.000000 0.000000
vn 0.000000 1.000000 0.000000
vn 0.000000 1.000000 0.000000
vn 0.000000 1.000000 0.000000
vn 0.000000 1.000000 0.000000
vn 0.000000 1.000000 0.000000
vn 0.000000 1.000000 0.000000
vn 0.000000 1.000000 0.000000
vn 0.000000 1.000000 0.000000
vn 0.000000 1.000000 0.000000
vn 0.000000 1.000000 0.000000
s 1
g ft
usemtl initialShadingGroup
f 1/1/1 2/2/2 6/6/3 5/5/4
f 3/3/5 4/4/6 10/10/7 9/9/8
f 4/4/6 5/5/4 11/11/9 10/10/7
f 5/5/4 6/6/3 12/12/10 11/11/9
f 6/6/3 7/7/11 13/13/12 12/12/10
f 7/7/11 8/8/13 14/14/14 13/13/12
f 10/10/7 11/11/9 16/16/15 15/15/16
f 11/11/9 12/12/10 17/17/17 16/16/15
f 12/12/10 13/13/12 18/18/18 17/17/17
f 16/16/15 17/17/17 20/20/19 19/19/20
