# This file uses centimeters as units for non-parametric coordinates.

mtllib CB2.mtl
g default
v -14.075568 15.040813 0.004600
v 3.013053 0.557567 0.004600
v 14.075569 15.040813 0.004600
v 5.432524 2.547551 0.004600
v 5.591773 -2.547551 0.004600
v 14.075569 -15.027261 0.004600
v 7.999592 -0.555860 0.004600
v -14.075568 -15.027261 0.004600
vt 0.615299 0.519976
vt 0.000000 1.000000
vt 1.000000 1.000000
vt 1.000000 0.000000
vt 0.713978 0.408729
vt 0.707884 0.591271
vt 0.806117 0.480085
vt 0.000000 0.000000
vn 0.000000 0.000000 -1.000000
vn 0.000000 0.000000 -1.000000
vn -0.000000 0.000000 -1.000000
vn -0.000000 0.000000 -1.000000
vn 0.000000 0.000000 -1.000000
vn 0.000000 0.000000 -1.000000
vn -0.000000 0.000000 -1.000000
vn 0.000000 0.000000 -1.000000
s 1
g Cbarrier5
usemtl initialShadingGroup
f 2/1/1 1/2/2 3/3/3
f 6/4/4 2/1/1 5/5/5
f 2/1/1 3/3/3 4/6/6
f 5/5/5 7/7/7 6/4/4
f 6/4/4 7/7/7 3/3/3
f 3/3/3 7/7/7 4/6/6
f 2/1/1 6/4/4 8/8/8
f 8/8/8 1/2/2 2/1/1
