# This file uses centimeters as units for non-parametric coordinates.

mtllib CB3.mtl
g default
v -14.075568 15.040813 0.004600
v -1.957415 -2.985278 0.004600
v 14.075569 15.040813 0.004600
v 14.075569 -15.027261 0.004600
v -14.075568 -15.027261 0.004600
v -4.688068 -4.500248 0.004600
v -2.736855 -8.023566 0.004600
v -0.001624 -6.494750 0.004600
vt 0.425096 0.393047
vt 0.000000 1.000000
vt 1.000000 1.000000
vt 1.000000 0.000000
vt 0.499938 0.267313
vt 0.000000 0.000000
vt 0.320604 0.338770
vt 0.395270 0.212540
vn -0.000000 0.000000 -1.000000
vn 0.000000 0.000000 -1.000000
vn -0.000000 0.000000 -1.000000
vn -0.000000 0.000000 -1.000000
vn -0.000000 0.000000 -1.000000
vn 0.000000 0.000000 -1.000000
vn 0.000000 0.000000 -1.000000
vn 0.000000 0.000000 -1.000000
s 1
g Cbarrier6
usemtl initialShadingGroup
f 2/1/1 1/2/2 3/3/3
f 3/3/3 4/4/4 2/1/1
f 4/4/4 8/5/5 2/1/1
f 5/6/6 1/2/2 6/7/7
f 4/4/4 7/8/8 8/5/5
f 6/7/7 7/8/8 5/6/6
f 4/4/4 5/6/6 7/8/8
f 6/7/7 1/2/2 2/1/1
