# This file uses centimeters as units for non-parametric coordinates.

mtllib EB3.mtl
g default
v -14.075568 15.040813 -0.003154
v 3.627888 -0.637489 -0.003154
v 14.075569 15.040813 -0.003154
v 5.363033 3.096348 -0.003154
v 5.362635 3.096497 -0.003154
v 3.420062 1.972758 -0.003154
v 14.075569 -15.027261 -0.003154
v 5.741758 -1.420955 -0.003154
v 7.686627 -0.294359 -0.003154
v 7.468073 2.309819 -0.003154
v -14.075568 -15.027261 -0.003154
vt 0.630874 0.570678
vt 0.638827 0.477161
vt 0.000000 1.000000
vt 0.705225 0.610933
vt 1.000000 1.000000
vt 0.785777 0.582754
vt 1.000000 0.000000
vt 0.794141 0.489454
vt 0.719717 0.449091
vt 0.000000 0.000000
vt 0.705210 0.610938
vn -0.000000 0.000000 -1.000000
vn 0.000000 0.000000 -1.000000
vn 0.000000 0.000000 -1.000000
vn 0.000000 0.000000 -1.000000
vn -0.000000 0.000000 -1.000000
vn -0.000000 0.000000 -1.000000
vn -0.000000 0.000000 -1.000000
vn -0.000000 0.000000 -1.000000
vn 0.000000 0.000000 -1.000000
vn 0.000000 0.000000 -1.000000
vn 0.000000 0.000000 -1.000000
s 1
g Ebarrier3
usemtl initialShadingGroup
f 6/1/1 2/2/2 1/3/3
f 4/4/4 3/5/5 10/6/6
f 3/5/5 7/7/7 10/6/6
f 10/6/6 7/7/7 9/8/8
f 2/2/2 8/9/9 7/7/7
f 7/7/7 8/9/9 9/8/8
f 2/2/2 7/7/7 11/10/10
f 11/10/10 1/3/3 2/2/2
f 6/1/1 1/3/3 3/5/5 4/4/4 5/11/11
