# This file uses centimeters as units for non-parametric coordinates.

mtllib T3.mtl
g default
v -13.066237 13.955978 0.391646
v -2.322433 -2.300730 0.275598
v 13.066238 13.955978 0.391646
v 13.066238 -13.955976 0.391646
v -7.019867 -6.360714 0.391646
v -6.497015 -2.219033 0.391646
v -13.066238 -13.955976 0.391646
vt 0.411128 0.417572
vt 0.000000 1.000000
vt 1.000000 1.000000
vt 1.000000 0.000000
vt 0.251382 0.420499
vt 0.000000 0.000000
vt 0.231374 0.272115
vn 0.000916 -0.000556 -1.000000
vn -0.000768 0.005861 -0.999983
vn 0.003660 0.003674 -0.999987
vn 0.005453 -0.001332 -0.999984
vn -0.016397 -0.006659 -0.999843
vn 0.000000 0.000000 -1.000000
vn -0.001073 -0.002839 -0.999995
s 1
g Tbarrier6
usemtl initialShadingGroup
f 2/1/1 1/2/2 3/3/3
f 3/3/3 4/4/4 2/1/1
f 2/1/1 6/5/5 1/2/2
f 7/6/6 1/2/2 5/7/7
f 1/2/2 6/5/5 5/7/7
f 4/4/4 5/7/7 2/1/1
f 4/4/4 7/6/6 5/7/7
