# This file uses centimeters as units for non-parametric coordinates.

mtllib cCollider.mtl
g default
v 0.000000 0.000000 0.621652
v 1.284624 1.831714 -0.479946
v -1.284624 1.831714 -0.492792
v -1.284624 -1.831714 -0.479327
v 1.284624 -1.831714 -0.492793
v 0.000000 0.870151 -0.486369
v 0.000000 -0.870151 -0.486060
vt 0.375000 0.000000
vt 0.625000 0.125000
vt 0.375000 0.250000
vt 0.375000 0.625000
vt 0.625000 0.500000
vt 0.500000 0.875000
vt 0.875000 0.000000
vt 0.875000 0.250000
vt 0.125000 0.125000
vt 0.500000 0.187500
vt 0.500000 0.562500
vn -0.003088 0.786465 0.617627
vn -0.003088 0.786465 0.617627
vn 0.505328 0.678666 0.532970
vn -0.000121 0.002320 -0.999997
vn 0.000653 0.001093 -0.999999
vn 0.002375 0.003507 -0.999991
vn 0.003238 -0.786381 0.617733
vn 0.003238 -0.786381 0.617733
vn -0.505192 -0.678656 0.533111
vn 0.653136 -0.002655 0.757236
vn 0.653136 -0.002655 0.757236
vn 0.653136 -0.002655 0.757236
vn -0.653031 0.002783 0.757326
vn -0.653031 0.002783 0.757326
vn -0.653031 0.002783 0.757326
vn -0.509281 0.676836 0.531532
vn 0.509336 -0.676738 0.531604
vn -0.000121 -0.002549 -0.999997
vn -0.002490 -0.003675 -0.999990
vn -0.002490 -0.003675 -0.999990
s 1
g Ccollider
usemtl initialShadingGroup
f 1/1/1 6/10/2 3/3/3
s 2
f 5/5/4 6/10/5 2/2/6
s 3
f 1/6/7 7/11/8 5/5/9
s off
f 2/2/10 1/7/11 5/8/12
f 4/9/13 1/1/14 3/3/15
s 1
f 1/1/1 2/2/16 6/10/2
s 3
f 4/4/17 7/11/8 1/6/7
s 2
f 3/3/18 7/11/19 4/4/20
f 7/11/19 6/10/5 5/5/4
f 3/3/18 6/10/5 7/11/19
