# This file uses centimeters as units for non-parametric coordinates.

mtllib Ccollider3.mtl
g default
v 1.131908 -0.011519 0.274310
v 0.960826 -0.011517 -1.386076
v 1.134846 -0.011517 -1.387370
v 1.131908 1.152325 0.274310
v 1.115261 1.614392 -1.616211
v 1.185142 1.610806 -1.617505
v 1.070512 -1.689812 -1.678975
v 1.131908 -1.175445 0.274310
v 1.185142 -1.686226 -1.680269
vt 0.625000 0.000000
vt 0.875000 0.000000
vt 0.875000 0.000000
vt 0.875000 0.250000
vt 0.625000 0.250000
vt 0.875000 0.250000
vt 0.875000 0.125000
vt 0.625000 0.125000
vt 0.875000 0.125000
vn 0.033110 -0.966758 0.253540
vn 0.033110 -0.966758 0.253540
vn 0.033110 -0.966758 0.253540
vn 0.054169 0.970090 0.236625
vn 0.054169 0.970090 0.236625
vn 0.054169 0.970090 0.236625
vn -0.996354 0.060147 0.060502
vn -0.996354 0.060147 0.060502
vn -0.996354 0.060147 0.060502
vn -0.996354 0.060147 0.060502
vn 0.999764 -0.016923 0.013621
vn 0.999764 -0.016923 0.013621
vn 0.999764 -0.016923 0.013621
vn 0.999764 -0.016923 0.013621
vn -0.012556 -0.139510 -0.990141
vn -0.012556 -0.139510 -0.990141
vn -0.012556 -0.139510 -0.990141
vn -0.012556 -0.139510 -0.990141
vn -0.996455 -0.045732 0.070614
vn -0.996455 -0.045732 0.070614
vn -0.996455 -0.045732 0.070614
vn -0.996455 -0.045732 0.070614
vn -0.010963 0.171584 -0.985109
vn -0.010963 0.171584 -0.985108
vn -0.010963 0.171584 -0.985109
vn -0.010963 0.171584 -0.985109
vn 0.999779 0.016350 0.013220
vn 0.999779 0.016350 0.013220
vn 0.999779 0.016350 0.013220
vn 0.999779 0.016350 0.013220
s off
g Ccollider3
usemtl initialShadingGroup
f 8/1/1 7/2/2 9/3/3
f 5/4/4 4/5/5 6/6/6
f 2/7/7 1/8/8 4/5/9 5/4/10
f 1/8/11 3/9/12 6/6/13 4/5/14
f 3/9/15 2/7/16 5/4/17 6/6/18
f 1/8/19 2/7/20 7/2/21 8/1/22
f 2/7/23 3/9/24 9/3/25 7/2/26
f 3/9/27 1/8/28 8/1/29 9/3/30
