# This file uses centimeters as units for non-parametric coordinates.

mtllib Ecollider.mtl
g default
v 1.238256 -1.143782 -1.651405
v -0.000000 -1.680907 -1.651405
v -1.238256 -1.143782 -1.651405
v -1.692786 -0.000000 -1.651405
v -1.004363 1.228798 -1.651405
v 0.000000 1.678277 -1.651405
v 1.004363 1.228798 -1.651405
v 1.692787 -0.000000 -1.651405
v 0.000000 0.039926 -1.651400
v -0.000000 -0.000000 0.071937
vt 0.610485 0.045765
vt 0.500000 0.000000
vt 0.389515 0.045765
vt 0.343750 0.156250
vt 0.389515 0.266735
vt 0.500000 0.312500
vt 0.610485 0.266735
vt 0.656250 0.156250
vt 0.375000 0.312500
vt 0.406250 0.312500
vt 0.437500 0.312500
vt 0.468750 0.312500
vt 0.500000 0.312500
vt 0.531250 0.312500
vt 0.562500 0.312500
vt 0.593750 0.312500
vt 0.625000 0.312500
vt 0.500000 0.688440
vt 0.500000 0.150000
vn -0.000001 0.000003 -1.000000
vn -0.000001 0.000003 -1.000000
vn -0.000001 0.000003 -1.000000
vn 0.000001 0.000003 -1.000000
vn 0.000001 0.000003 -1.000000
vn 0.000001 0.000003 -1.000000
vn 0.000003 0.000001 -1.000000
vn 0.000003 0.000001 -1.000000
vn 0.000003 0.000001 -1.000000
vn 0.000003 -0.000002 -1.000000
vn 0.000003 -0.000002 -1.000000
vn 0.000003 -0.000002 -1.000000
vn 0.000001 -0.000003 -1.000000
vn 0.000001 -0.000003 -1.000000
vn 0.000001 -0.000003 -1.000000
vn -0.000001 -0.000003 -1.000000
vn -0.000001 -0.000003 -1.000000
vn -0.000001 -0.000003 -1.000000
vn -0.000003 -0.000002 -1.000000
vn -0.000003 -0.000002 -1.000000
vn -0.000003 -0.000002 -1.000000
vn -0.000003 0.000001 -1.000000
vn -0.000003 0.000001 -1.000000
vn -0.000003 0.000001 -1.000000
vn 0.000000 -0.715866 0.698238
vn 0.503940 -0.507501 0.698919
vn 0.000000 -0.000000 1.000000
vn -0.503940 -0.507501 0.698919
vn -0.711645 0.070155 0.699027
vn -0.518995 0.523482 0.675730
vn -0.000000 0.716412 0.697678
vn 0.518995 0.523482 0.675730
vn 0.711645 0.070155 0.699027
s off
g Ecollider
usemtl initialShadingGroup
f 1/9/1 2/10/2 9/18/3
f 2/10/4 3/11/5 9/18/6
f 3/11/7 4/12/8 9/18/9
f 4/12/10 5/13/11 9/18/12
f 5/13/13 6/14/14 9/18/15
f 6/14/16 7/15/17 9/18/18
f 7/15/19 8/16/20 9/18/21
f 8/16/22 1/17/23 9/18/24
s 1
f 2/2/25 1/1/26 10/19/27
f 3/3/28 2/2/25 10/19/27
f 4/4/29 3/3/28 10/19/27
f 5/5/30 4/4/29 10/19/27
f 6/6/31 5/5/30 10/19/27
f 7/7/32 6/6/31 10/19/27
f 8/8/33 7/7/32 10/19/27
f 1/1/26 8/8/33 10/19/27
