# This file uses centimeters as units for non-parametric coordinates.

mtllib Tcollider3.mtl
g default
v 1.785703 -0.867154 -0.321147
v 0.115456 -0.409358 -0.321147
v 1.840344 -0.732028 -0.321147
v 0.167770 -0.216321 -0.321147
v 1.840344 -0.732028 -1.321147
v 0.167770 -0.216321 -1.321147
v 1.785703 -0.867154 -1.321147
v 0.115456 -0.409358 -1.321147
vt 0.375000 0.000000
vt 0.375000 0.250000
vt 0.625000 0.250000
vt 0.625000 0.000000
vt 0.375000 0.500000
vt 0.625000 0.500000
vt 0.375000 0.750000
vt 0.625000 0.750000
vt 0.375000 1.000000
vt 0.625000 1.000000
vt 0.875000 0.250000
vt 0.875000 0.000000
vt 0.125000 0.000000
vt 0.125000 0.250000
vn 0.000000 0.000000 1.000000
vn 0.000000 0.000000 1.000000
vn 0.000000 0.000000 1.000000
vn 0.000000 0.000000 1.000000
vn 0.294644 0.955607 0.000000
vn 0.294644 0.955607 0.000000
vn 0.294644 0.955607 0.000000
vn 0.294644 0.955607 0.000000
vn 0.000000 0.000000 -1.000000
vn 0.000000 0.000000 -1.000000
vn 0.000000 0.000000 -1.000000
vn 0.000000 0.000000 -1.000000
vn -0.264339 -0.964430 0.000000
vn -0.264339 -0.964430 0.000000
vn -0.264339 -0.964430 0.000000
vn -0.264339 -0.964430 0.000000
vn -0.965183 0.261574 0.000000
vn -0.965183 0.261574 0.000000
vn -0.965183 0.261574 0.000000
vn -0.965183 0.261574 0.000000
vn 0.927075 -0.374877 0.000000
vn 0.927075 -0.374877 0.000000
vn 0.927075 -0.374877 0.000000
vn 0.927075 -0.374877 0.000000
s off
g Tcollider3
usemtl initialShadingGroup
f 1/1/1 3/2/2 4/3/3 2/4/4
f 3/2/5 5/5/6 6/6/7 4/3/8
f 5/5/9 7/7/10 8/8/11 6/6/12
f 7/7/13 1/9/14 2/10/15 8/8/16
f 2/4/17 4/3/18 6/11/19 8/12/20
f 7/13/21 5/14/22 3/2/23 1/1/24
