# This file uses centimeters as units for non-parametric coordinates.

mtllib Tcollider2.mtl
g default
v -1.785704 -0.867154 -0.321147
v -0.115456 -0.409358 -0.321147
v -1.840343 -0.732029 -0.321147
v -0.167770 -0.216321 -0.321147
v -1.840343 -0.732029 -1.321147
v -0.167770 -0.216321 -1.321147
v -1.785704 -0.867154 -1.321147
v -0.115456 -0.409358 -1.321147
vt 0.375000 0.000000
vt 0.625000 0.000000
vt 0.625000 0.250000
vt 0.375000 0.250000
vt 0.625000 0.500000
vt 0.375000 0.500000
vt 0.625000 0.750000
vt 0.375000 0.750000
vt 0.625000 1.000000
vt 0.375000 1.000000
vt 0.875000 0.000000
vt 0.875000 0.250000
vt 0.125000 0.000000
vt 0.125000 0.250000
vn 0.000000 0.000000 1.000000
vn 0.000000 0.000000 1.000000
vn 0.000000 0.000000 1.000000
vn 0.000000 0.000000 1.000000
vn -0.294644 0.955607 0.000000
vn -0.294644 0.955607 0.000000
vn -0.294644 0.955607 0.000000
vn -0.294644 0.955607 0.000000
vn 0.000000 0.000000 -1.000000
vn 0.000000 0.000000 -1.000000
vn 0.000000 0.000000 -1.000000
vn 0.000000 0.000000 -1.000000
vn 0.264339 -0.964430 0.000000
vn 0.264339 -0.964430 0.000000
vn 0.264339 -0.964430 0.000000
vn 0.264339 -0.964430 0.000000
vn 0.965184 0.261574 0.000000
vn 0.965184 0.261574 0.000000
vn 0.965184 0.261574 0.000000
vn 0.965184 0.261574 0.000000
vn -0.927075 -0.374875 0.000000
vn -0.927075 -0.374875 0.000000
vn -0.927075 -0.374875 0.000000
vn -0.927075 -0.374875 0.000000
s off
g Tcollider2
usemtl initialShadingGroup
f 1/1/1 2/2/2 4/3/3 3/4/4
f 3/4/5 4/3/6 6/5/7 5/6/8
f 5/6/9 6/5/10 8/7/11 7/8/12
f 7/8/13 8/7/14 2/9/15 1/10/16
f 2/2/17 8/11/18 6/12/19 4/3/20
f 7/13/21 1/1/22 3/4/23 5/14/24
