# This file uses centimeters as units for non-parametric coordinates.

mtllib Scollider.mtl
g default
v -1.006091 -0.796487 1.786177
v 1.006091 -0.796487 1.786177
v -1.006091 0.797263 1.786177
v 1.006091 0.797263 1.786177
v -1.412346 1.373646 0.227762
v 1.412346 1.373646 0.227762
v -1.215339 2.042811 -1.806981
v 1.215339 2.042811 -1.806981
v -1.317488 -1.290905 -2.009375
v 1.317488 -1.290905 -2.009375
v -1.320659 -1.362893 -0.490872
v 1.320659 -1.362893 -0.490872
vt 0.375000 0.000000
vt 0.625000 0.000000
vt 0.375000 0.250000
vt 0.625000 0.250000
vt 0.375000 0.375000
vt 0.625000 0.375000
vt 0.375000 0.500000
vt 0.625000 0.500000
vt 0.375000 0.750000
vt 0.625000 0.750000
vt 0.375000 0.875000
vt 0.625000 0.875000
vt 0.375000 1.000000
vt 0.625000 1.000000
vt 0.875000 0.000000
vt 0.750000 0.000000
vt 0.875000 0.250000
vt 0.750000 0.250000
vt 0.125000 0.000000
vt 0.250000 0.000000
vt 0.125000 0.250000
vt 0.250000 0.250000
vn 0.000000 0.000000 1.000000
vn 0.000000 0.000000 1.000000
vn 0.000000 0.000000 1.000000
vn 0.000000 0.000000 1.000000
vn 0.000000 0.937907 0.346887
vn 0.000000 0.937907 0.346887
vn 0.000000 0.945436 0.325809
vn 0.000000 0.945436 0.325809
vn 0.000000 0.949948 0.312409
vn 0.000000 0.949948 0.312409
vn 0.000000 0.060600 -0.998162
vn 0.000000 0.060600 -0.998162
vn 0.000000 0.060600 -0.998162
vn 0.000000 0.060600 -0.998162
vn 0.000000 -0.998878 -0.047354
vn 0.000000 -0.998878 -0.047354
vn 0.000000 -0.993683 0.112220
vn 0.000000 -0.993683 0.112220
vn 0.000000 -0.970428 0.241390
vn 0.000000 -0.970428 0.241390
vn 0.999734 -0.009427 0.021059
vn 0.998482 0.009941 -0.054177
vn 0.998482 0.009941 -0.054177
vn 0.999935 -0.006421 0.009379
vn 0.981521 -0.051373 0.184330
vn 0.981521 -0.051373 0.184330
vn -0.998482 0.009941 -0.054177
vn -0.999734 -0.009427 0.021059
vn -0.999935 -0.006421 0.009379
vn -0.998482 0.009941 -0.054177
vn -0.981521 -0.051373 0.184330
vn -0.981521 -0.051373 0.184330
s off
g Ccollider
usemtl initialShadingGroup
f 1/1/1 2/2/2 4/4/3 3/3/4
s 1
f 3/3/5 4/4/6 6/6/7 5/5/8
f 5/5/8 6/6/7 8/8/9 7/7/10
s off
f 7/7/11 8/8/12 10/10/13 9/9/14
s 2
f 9/9/15 10/10/16 12/12/17 11/11/18
f 11/11/18 12/12/17 2/14/19 1/13/20
s 3
f 12/16/21 10/15/22 8/17/23 6/18/24
f 2/2/25 12/16/21 6/18/24 4/4/26
s 4
f 9/19/27 11/20/28 5/22/29 7/21/30
f 11/20/28 1/1/31 3/3/32 5/22/29
