# This file uses centimeters as units for non-parametric coordinates.

mtllib TcolliderFRONT.mtl
g default
v -0.306330 -0.732900 1.774675
v 0.306330 -0.732900 1.774675
v -0.212128 -0.459585 1.774675
v 0.212128 -0.459585 1.774675
v -0.273405 -0.097992 -0.264538
v 0.273405 -0.097992 -0.264538
v -0.622557 -0.940957 -0.264538
v 0.622557 -0.940957 -0.264538
vt 0.375000 0.000000
vt 0.625000 0.000000
vt 0.375000 0.250000
vt 0.625000 0.250000
vt 0.375000 0.500000
vt 0.625000 0.500000
vt 0.375000 0.750000
vt 0.625000 0.750000
vt 0.375000 1.000000
vt 0.625000 1.000000
vt 0.875000 0.000000
vt 0.875000 0.250000
vt 0.125000 0.000000
vt 0.125000 0.250000
vn 0.000000 0.000000 1.000000
vn 0.000000 0.000000 1.000000
vn 0.000000 0.000000 1.000000
vn 0.000000 0.000000 1.000000
vn 0.000000 0.984640 0.174596
vn 0.000000 0.984640 0.174596
vn 0.000000 0.984640 0.174596
vn 0.000000 0.984640 0.174596
vn 0.000000 0.000000 -1.000000
vn 0.000000 0.000000 -1.000000
vn 0.000000 0.000000 -1.000000
vn 0.000000 0.000000 -1.000000
vn 0.000000 -0.994835 0.101501
vn 0.000000 -0.994835 0.101501
vn 0.000000 -0.994835 0.101501
vn 0.000000 -0.994835 0.101501
vn 0.924776 0.367294 0.099425
vn 0.924776 0.367294 0.099425
vn 0.924776 0.367294 0.099425
vn 0.924776 0.367293 0.099425
vn -0.924776 0.367294 0.099425
vn -0.924776 0.367294 0.099425
vn -0.924776 0.367293 0.099425
vn -0.924776 0.367294 0.099425
s off
g TcolliderFRONT
usemtl initialShadingGroup
f 1/1/1 2/2/2 4/4/3 3/3/4
f 3/3/5 4/4/6 6/6/7 5/5/8
f 5/5/9 6/6/10 8/8/11 7/7/12
f 7/7/13 8/8/14 2/10/15 1/9/16
f 2/2/17 8/11/18 6/12/19 4/4/20
f 7/13/21 1/1/22 3/3/23 5/14/24
