# This file uses centimeters as units for non-parametric coordinates.

mtllib TcolliderIZQ.mtl
g default
v 0.148142 -1.188214 -0.429123
v 2.617197 -2.212775 -0.598757
v 0.146267 -0.728959 -0.429123
v 2.909610 -1.753521 -0.598757
v 0.146267 -0.728959 -1.429123
v 2.909610 -1.753521 -1.427306
v 0.148142 -1.188214 -1.429123
v 2.617197 -2.212775 -1.427306
vt 0.375000 0.000000
vt 0.625000 0.000000
vt 0.625000 0.250000
vt 0.375000 0.250000
vt 0.625000 0.500000
vt 0.375000 0.500000
vt 0.625000 0.750000
vt 0.375000 0.750000
vt 0.625000 1.000000
vt 0.375000 1.000000
vt 0.875000 0.000000
vt 0.875000 0.250000
vt 0.125000 0.000000
vt 0.125000 0.250000
vn 0.057588 -0.018216 0.998174
vn 0.057588 -0.018216 0.998174
vn 0.057588 -0.018216 0.998174
vn 0.057588 -0.018216 0.998174
vn 0.347643 0.937627 0.000000
vn 0.347643 0.937627 0.000000
vn 0.347643 0.937627 0.000000
vn 0.347643 0.937627 0.000000
vn 0.000618 -0.000196 -1.000000
vn 0.000618 -0.000196 -1.000000
vn 0.000618 -0.000196 -1.000000
vn 0.000618 -0.000196 -1.000000
vn -0.383273 -0.923635 0.000000
vn -0.383273 -0.923635 0.000000
vn -0.383272 -0.923635 0.000000
vn -0.383273 -0.923635 0.000000
vn 0.843529 -0.537084 0.000000
vn 0.843529 -0.537084 0.000000
vn 0.843529 -0.537084 0.000000
vn 0.843529 -0.537084 0.000000
vn -0.999992 -0.004083 0.000000
vn -0.999992 -0.004083 0.000000
vn -0.999992 -0.004083 0.000000
vn -0.999992 -0.004083 0.000000
s off
g TcolliderIZQ
usemtl initialShadingGroup
f 1/1/1 2/2/2 4/3/3 3/4/4
f 3/4/5 4/3/6 6/5/7 5/6/8
f 5/6/9 6/5/10 8/7/11 7/8/12
f 7/8/13 8/7/14 2/9/15 1/10/16
f 2/2/17 8/11/18 6/12/19 4/3/20
f 7/13/21 1/1/22 3/4/23 5/14/24
