# This file uses centimeters as units for non-parametric coordinates.

mtllib Tcollider2.mtl
g default
v -2.856713 -0.623934 0.254958
v 0.000000 -0.329022 0.254958
v 2.856713 -0.623934 0.254958
v -2.805465 -0.503656 0.254958
v 0.000000 0.500000 0.250726
v 2.805465 -0.503656 0.254958
v -2.805465 -0.503656 -0.254958
v 0.000000 0.500000 -0.399356
v 2.805465 -0.503656 -0.254958
v -2.856713 -0.623934 -0.254958
v 0.000000 -0.329022 -0.254958
v 2.856713 -0.623934 -0.254958
vt 0.375000 0.000000
vt 0.500000 0.000000
vt 0.625000 0.000000
vt 0.375000 0.250000
vt 0.500000 0.250000
vt 0.625000 0.250000
vt 0.375000 0.500000
vt 0.500000 0.500000
vt 0.625000 0.500000
vt 0.375000 0.750000
vt 0.500000 0.750000
vt 0.625000 0.750000
vt 0.375000 1.000000
vt 0.500000 1.000000
vt 0.625000 1.000000
vt 0.875000 0.000000
vt 0.875000 0.250000
vt 0.125000 0.000000
vt 0.125000 0.250000
vn -0.000278 0.004473 0.999990
vn 0.000000 0.004473 0.999990
vn 0.000000 0.004473 0.999990
vn -0.000278 0.004473 0.999990
vn 0.000278 0.004473 0.999990
vn 0.000278 0.004473 0.999990
vn -0.336844 0.941561 0.000000
vn 0.000000 1.000000 0.000000
vn 0.000000 1.000000 0.000000
vn -0.336844 0.941561 0.000000
vn 0.336844 0.941561 0.000000
vn 0.336844 0.941561 0.000000
vn 0.009391 -0.150870 -0.988509
vn 0.000000 -0.150876 -0.988553
vn 0.000000 -0.150876 -0.988553
vn 0.009391 -0.150870 -0.988509
vn -0.009391 -0.150870 -0.988509
vn -0.009391 -0.150870 -0.988509
vn 0.102689 -0.994714 0.000000
vn 0.000000 -1.000000 0.000000
vn 0.000000 -1.000000 0.000000
vn 0.102689 -0.994714 0.000000
vn -0.102689 -0.994714 0.000000
vn -0.102689 -0.994714 0.000000
vn 0.919973 0.391981 0.000000
vn 0.919973 0.391981 0.000000
vn 0.919973 0.391981 0.000000
vn 0.919973 0.391981 0.000000
vn -0.919973 0.391981 0.000000
vn -0.919973 0.391981 0.000000
vn -0.919973 0.391981 0.000000
vn -0.919973 0.391981 0.000000
s 1
g Tcollider2
usemtl initialShadingGroup
f 1/1/1 2/2/2 5/5/3 4/4/4
f 2/2/2 3/3/5 6/6/6 5/5/3
s 2
f 4/4/7 5/5/8 8/8/9 7/7/10
f 5/5/8 6/6/11 9/9/12 8/8/9
s 3
f 7/7/13 8/8/14 11/11/15 10/10/16
f 8/8/14 9/9/17 12/12/18 11/11/15
s 4
f 10/10/19 11/11/20 2/14/21 1/13/22
f 11/11/20 12/12/23 3/15/24 2/14/21
s off
f 3/3/25 12/16/26 9/17/27 6/6/28
f 10/18/29 1/1/30 4/4/31 7/19/32
